<?xml version="1.0" encoding="UTF-8" standalone="no"?>
<!-- Created with Inkscape (http://www.inkscape.org/) -->

<svg
   width="210mm"
   height="297mm"
   viewBox="0 0 210 297"
   version="1.1"
   id="svg5"
   inkscape:version="1.1 (c68e22c387, 2021-05-23)"
   sodipodi:docname="drawing.svg"
   xmlns:inkscape="http://www.inkscape.org/namespaces/inkscape"
   xmlns:sodipodi="http://sodipodi.sourceforge.net/DTD/sodipodi-0.dtd"
   xmlns="http://www.w3.org/2000/svg"
   xmlns:svg="http://www.w3.org/2000/svg">
  <sodipodi:namedview
     id="namedview7"
     pagecolor="#505050"
     bordercolor="#ffffff"
     borderopacity="1"
     inkscape:pageshadow="0"
     inkscape:pageopacity="0"
     inkscape:pagecheckerboard="1"
     inkscape:document-units="mm"
     showgrid="false"
     inkscape:zoom="1.64"
     inkscape:cx="505.18293"
     inkscape:cy="433.23171"
     inkscape:window-width="1920"
     inkscape:window-height="1001"
     inkscape:window-x="1911"
     inkscape:window-y="-9"
     inkscape:window-maximized="1"
     inkscape:current-layer="layer1" />
  <defs
     id="defs2" />
  <g
     inkscape:label="Layer 1"
     inkscape:groupmode="layer"
     id="layer1">
    <path
       style="color:#000000;fill:#ffff00;fill-rule:evenodd;stroke-width:0.264583;-inkscape-stroke:none"
       d="m 102.96144,209.52611 c -5.182151,-0.18895 -11.039064,0.22584 -15.019761,-4.05214 -17.921869,-19.26028 -36.353097,-57.5308 -36.353097,-57.5308 0,0 -16.967211,-32.00047 -22.449265,-49.160732 C 26.437041,90.323607 21.297172,81.04605 24.106572,72.622192 25.569509,68.235643 30.316379,65.507441 34.379457,63.299865 54.534159,52.34929 77.970389,45.4053 100.90582,45.710434 c 29.21099,0.388624 68.59883,0.43672 84.10325,24.648381 13.0161,20.325915 -3.20251,49.243185 -13.25903,71.184655 -11.51538,25.12442 -28.1743,50.43026 -51.83629,64.71139 -4.92716,2.97377 -11.20111,3.48094 -16.95231,3.27125 z"
       id="path472"
       sodipodi:nodetypes="ascaaaasaaa" />
    <path
       style="color:#000000;fill:#ffff00;fill-rule:evenodd;stroke-width:0.264583;-inkscape-stroke:none"
       d="m 102.96144,209.52611 c -5.18215,-0.18895 -11.039068,0.22584 -15.019765,-4.05214 -17.921869,-19.26028 -36.353097,-57.5308 -36.353097,-57.5308 0,0 -16.967211,-32.00047 -22.449265,-49.16073 C 26.437037,90.32361 21.297168,81.04605 24.106568,72.6222 25.569505,68.23565 30.316375,65.50745 34.379453,63.29987 54.534155,52.3493 77.970385,45.405305 100.90582,45.710439 c 29.21099,0.388624 68.59883,0.43672 84.10325,24.648381 13.0161,20.32591 -3.20251,49.24318 -13.25903,71.18465 -11.51538,25.12442 -28.1743,50.43027 -51.83629,64.71139 -4.92716,2.97377 -11.20111,3.48095 -16.95231,3.27125 z"
       id="path472-69"
       sodipodi:nodetypes="ascaaaasaaa" />
    <path
       style="color:#000000;fill:#00ff00;fill-rule:evenodd;stroke-width:0.264583;-inkscape-stroke:none"
       d="m 102.96144,209.52611 c -5.18215,-0.18895 -11.03907,0.22584 -15.01977,-4.05214 -17.921865,-19.26028 -36.353093,-57.5308 -36.353093,-57.5308 0,0 -2.093101,-3.51267 -2.925274,-5.49559 -3.423642,-8.15792 -12.939943,-23.14366 -15.887989,-33.46189 -2.160469,-7.56169 -0.59797,-12.179358 5.842328,-11.430825 8.995779,1.045548 -8.582239,-7.532623 -0.469965,13.645795 3.171054,8.27856 7.332058,19.22031 10.610931,25.18226 6.753107,12.27913 15.456596,27.91293 23.120847,41.03135 4.245452,7.26667 8.879164,15.69154 12.727318,21.35366 1.587639,2.33603 8.354524,-3.29407 12.658401,-4.55231 1.281106,-0.37453 2.571938,-0.81176 3.904486,-0.88798 1.39916,-0.08 2.81101,0.15546 4.17921,0.45888 4.54944,1.00891 10.59616,5.71787 13.23865,4.49179 3.77072,-1.74957 8.20021,-5.10127 11.58159,-8.23549 8.45411,-7.83614 16.4624,-17.27463 25.94973,-31.0345 7.47122,-10.83583 6.50448,-10.9503 10.57657,-22.62347 4.90242,-14.05339 6.13119,-4.51404 5.71422,-1.70113 -1.43472,9.67879 -6.24084,17.06601 -10.34421,24.92532 -1.8137,3.47384 -3.76037,7.89932 -6.34162,11.66251 -3.74411,5.45852 -8.38646,10.2518 -12.25087,14.79961 -3.81262,4.48687 -8.2603,9.1757 -12.81725,12.83284 -3.59881,2.88818 -7.26578,4.88471 -10.74193,7.35089 -4.69374,3.33001 -11.20111,3.48095 -16.95231,3.27125 z"
       id="path472-69-1"
       sodipodi:nodetypes="ascsssssssaaassssssssssaa" />
    <path
       style="color:#000000;fill:#ff0000;fill-rule:evenodd;stroke-width:0.264583;-inkscape-stroke:none"
       d="m 169.35806,120.41002 c 0.54594,-7.45857 1.9102,-15.7033 -1.05311,-22.410829 -4.42114,-10.007352 -17.00711,-14.781577 -27.47936,-17.947897 -10.69871,-3.234792 -22.54444,-2.3507 -33.52988,-0.29 -25.21637,4.730204 -46.495414,25.652416 -71.492024,28.514066 -3.155615,0.36126 -2.727794,2.33845 -6.266645,-7.11196 C 28.241497,98.468116 27.521692,95.484568 26.508045,92.537868 25.054083,88.31116 22.370624,81.8069 22.675981,78.288237 c -0.888826,-3.618179 -1.272176,-7.52486 -0.4602,-10.840831 0.811976,-3.315971 6.847724,-6.942224 11.11582,-9.124844 21.063133,-10.771269 44.970014,-18.619245 68.622069,-18.113359 30.07728,0.643314 70.69454,2.53243 86.19896,26.744091 13.01609,20.325915 -16.40259,74.590176 -16.40259,74.590176 -7.12098,14.17225 -10.08321,21.57469 -9.13168,13.33617 0.89202,-7.72334 5.88504,-22.79341 6.7397,-34.46962 z"
       id="path472-6"
       sodipodi:nodetypes="asaascsczaascsa" />
  </g>
</svg>
